<svg xmlns="http://www.w3.org/2000/svg" version="1.1" xmlns:xlink="http://www.w3.org/1999/xlink" xmlns:svgjs="http://svgjs.com/svgjs" width="69" height="70"><svg width="69" height="70" viewBox="0 0 69 70" xmlns="http://www.w3.org/2000/svg">
<style> path { fill: black; } @media (prefers-color-scheme: dark) { path { fill: white; } }</style>
<g id="SvgjsG1001" stroke-linecap="round" fill-rule="evenodd" font-size="9pt"><path d="M 2.7 0 L 66.3 0 A 2.591 2.591 0 0 1 68.175 0.775 A 3.269 3.269 0 0 1 68.2 0.8 A 2.711 2.711 0 0 1 68.833 1.757 A 2.634 2.634 0 0 1 69 2.7 L 69 17.9 A 2.591 2.591 0 0 1 68.225 19.775 A 3.269 3.269 0 0 1 68.2 19.8 A 2.711 2.711 0 0 1 67.243 20.433 A 2.634 2.634 0 0 1 66.3 20.6 L 27 20.6 L 27 27 L 59.8 27 A 2.591 2.591 0 0 1 61.675 27.775 A 3.269 3.269 0 0 1 61.7 27.8 A 2.711 2.711 0 0 1 62.333 28.757 A 2.634 2.634 0 0 1 62.5 29.7 L 62.5 44.8 A 2.591 2.591 0 0 1 61.725 46.675 A 3.269 3.269 0 0 1 61.7 46.7 A 2.711 2.711 0 0 1 60.743 47.333 A 2.634 2.634 0 0 1 59.8 47.5 L 27 47.5 L 27 67.3 A 2.591 2.591 0 0 1 26.225 69.175 A 3.269 3.269 0 0 1 26.2 69.2 A 2.711 2.711 0 0 1 25.243 69.833 A 2.634 2.634 0 0 1 24.3 70 L 2.7 70 A 2.591 2.591 0 0 1 0.825 69.225 A 3.269 3.269 0 0 1 0.8 69.2 A 2.711 2.711 0 0 1 0.167 68.243 A 2.634 2.634 0 0 1 0 67.3 L 0 2.7 A 2.591 2.591 0 0 1 0.775 0.825 A 3.269 3.269 0 0 1 0.8 0.8 A 2.711 2.711 0 0 1 1.757 0.167 A 2.634 2.634 0 0 1 2.7 0 Z" id="SvgjsPath1000"></path></g></svg><style>@media (prefers-color-scheme: light) { :root { filter: none; } }
</style></svg>